<svg width="800" height="800" viewBox="0 0 1024 1024" class="icon" xmlns="http://www.w3.org/2000/svg"><path d="M659.001 1021.27H364.43c-39.367 0-71.566-32.2-71.566-71.566v-512c0-39.367 32.199-71.566 71.566-71.566h294.571c39.367 0 71.566 32.199 71.566 71.566V949.59c0 39.367-32.199 71.68-71.566 71.68z" fill="#f7c194"/><path d="M623.389 137.216C557.17 268.971 558.763 19.797 513.024 3.299c-4.096 21.277-10.695 42.212-19.456 62.009-17.18 38.798-46.08 55.979-71.111 87.836-39.822 50.745-35.954 132.78 12.63 176.014 58.481 51.997 152.348 31.517 185.116-39.14 21.05-45.396 6.713-104.902 3.186-152.802z" fill="#f9ad5a"/><path d="M656.839 676.409c0-45.511-36.864-82.489-82.489-82.489-25.145 0-47.673 11.264-62.805 29.013-15.133-17.749-37.66-29.013-62.805-29.013-45.512 0-82.49 36.864-82.49 82.489 0 23.893 11.037 43.918 26.397 60.53L512 851.285l117.077-113.209c14.791-15.474 27.762-37.092 27.762-61.667z" fill="#d1525c"/><path d="M404.935 690.631c-2.617 0-4.892-1.82-5.461-4.437a53.634 53.634 0 01-1.252-11.378c0-28.445 23.21-51.655 51.655-51.655 11.492 0 22.3 3.64 31.29 10.581 2.502 1.934 2.957 5.461 1.023 7.85-1.934 2.504-5.461 2.959-7.85 1.025-7.055-5.462-15.588-8.306-24.463-8.306-22.3 0-40.39 18.09-40.39 40.391 0 2.958.34 6.03 1.023 8.875a5.623 5.623 0 01-4.21 6.713 3.03 3.03 0 01-1.365.341z" fill="#fff"/><path d="M497.891 149.618c-19.57 43.577-72.249 137.557 4.779 160.427 16.953 5.006 38.57 1.82 49.607-13.426 28.33-39.026-31.517-83.627-32.313-120.946-.797.683-9.444 15.36-9.785 12.63-1.593-13.085-6.713-26.625-12.288-38.685z" fill="#ea8500"/><path d="M505.742 210.603c-13.995 25.031-43.463 89.316 2.844 100.807 26.966 6.6 42.553-15.815 30.38-37.32-12.972-22.868-34.476-33.564-33.224-63.487z" fill="#e5653e"/></svg>